<mxfile host="65bd71144e" pages="2">
    <diagram id="-j3ABhKN6nNZUZQ9K0gh" name="struct">
        <mxGraphModel dx="936" dy="717" grid="1" gridSize="10" guides="1" tooltips="1" connect="1" arrows="1" fold="1" page="1" pageScale="1" pageWidth="850" pageHeight="1100" math="0" shadow="0">
            <root>
                <mxCell id="0"/>
                <mxCell id="1" parent="0"/>
                <mxCell id="UzJXnwG8LM18Alzrsjrq-1" value="cap" style="rounded=0;whiteSpace=wrap;html=1;strokeWidth=2;fontSize=17;" parent="1" vertex="1">
                    <mxGeometry x="205" y="426" width="120" height="48" as="geometry"/>
                </mxCell>
                <mxCell id="UzJXnwG8LM18Alzrsjrq-2" value="len" style="rounded=0;whiteSpace=wrap;html=1;strokeWidth=2;fontSize=17;" parent="1" vertex="1">
                    <mxGeometry x="205" y="378" width="120" height="48" as="geometry"/>
                </mxCell>
                <mxCell id="UzJXnwG8LM18Alzrsjrq-10" style="edgeStyle=orthogonalEdgeStyle;rounded=0;orthogonalLoop=1;jettySize=auto;html=1;endArrow=open;endFill=0;dashed=1;" parent="1" edge="1">
                    <mxGeometry relative="1" as="geometry">
                        <mxPoint x="335" y="354" as="sourcePoint"/>
                        <mxPoint x="395" y="354" as="targetPoint"/>
                    </mxGeometry>
                </mxCell>
                <mxCell id="UzJXnwG8LM18Alzrsjrq-3" value="data" style="rounded=0;whiteSpace=wrap;html=1;strokeWidth=2;fontSize=17;" parent="1" vertex="1">
                    <mxGeometry x="205" y="330" width="120" height="48" as="geometry"/>
                </mxCell>
                <mxCell id="UzJXnwG8LM18Alzrsjrq-4" value="1" style="rounded=0;whiteSpace=wrap;html=1;strokeWidth=2;fontSize=17;" parent="1" vertex="1">
                    <mxGeometry x="405" y="330" width="40" height="48" as="geometry"/>
                </mxCell>
                <mxCell id="UzJXnwG8LM18Alzrsjrq-5" value="2" style="rounded=0;whiteSpace=wrap;html=1;strokeWidth=2;fontSize=17;" parent="1" vertex="1">
                    <mxGeometry x="445" y="330" width="40" height="48" as="geometry"/>
                </mxCell>
                <mxCell id="UzJXnwG8LM18Alzrsjrq-6" value="3" style="rounded=0;whiteSpace=wrap;html=1;strokeWidth=2;fontSize=17;" parent="1" vertex="1">
                    <mxGeometry x="485" y="330" width="40" height="48" as="geometry"/>
                </mxCell>
                <mxCell id="UzJXnwG8LM18Alzrsjrq-7" value="4" style="rounded=0;whiteSpace=wrap;html=1;strokeWidth=2;fontSize=17;" parent="1" vertex="1">
                    <mxGeometry x="525" y="330" width="40" height="48" as="geometry"/>
                </mxCell>
                <mxCell id="UzJXnwG8LM18Alzrsjrq-8" value="" style="rounded=0;whiteSpace=wrap;html=1;strokeWidth=2;fontSize=17;" parent="1" vertex="1">
                    <mxGeometry x="565" y="330" width="40" height="48" as="geometry"/>
                </mxCell>
                <mxCell id="UzJXnwG8LM18Alzrsjrq-9" value="" style="rounded=0;whiteSpace=wrap;html=1;strokeWidth=2;fontSize=17;" parent="1" vertex="1">
                    <mxGeometry x="605" y="330" width="40" height="48" as="geometry"/>
                </mxCell>
            </root>
        </mxGraphModel>
    </diagram>
    <diagram id="MI2sQDWjPhkffmwuEfQI" name="append">
        <mxGraphModel dx="1440" dy="1103" grid="1" gridSize="10" guides="1" tooltips="1" connect="1" arrows="1" fold="1" page="1" pageScale="1" pageWidth="850" pageHeight="1100" math="0" shadow="0">
            <root>
                <mxCell id="ioofGif-w8L6dYO9t3PO-0"/>
                <mxCell id="ioofGif-w8L6dYO9t3PO-1" parent="ioofGif-w8L6dYO9t3PO-0"/>
                <mxCell id="0MO9sEzC8jJ6i8e_DC24-21" value="old.cap &amp;lt; 1024" style="edgeStyle=orthogonalEdgeStyle;rounded=0;orthogonalLoop=1;jettySize=auto;html=1;exitX=1;exitY=0.5;exitDx=0;exitDy=0;entryX=0;entryY=0.5;entryDx=0;entryDy=0;dashed=1;endArrow=open;endFill=0;strokeWidth=2;fontSize=16;" parent="ioofGif-w8L6dYO9t3PO-1" source="0MO9sEzC8jJ6i8e_DC24-20" target="0MO9sEzC8jJ6i8e_DC24-8" edge="1">
                    <mxGeometry x="-0.0588" relative="1" as="geometry">
                        <Array as="points">
                            <mxPoint x="685" y="174"/>
                            <mxPoint x="685" y="174"/>
                        </Array>
                        <mxPoint as="offset"/>
                    </mxGeometry>
                </mxCell>
                <mxCell id="CYp2y_-ue1TsQymlMDz_-2" value="cap &amp;lt; doublecap" style="edgeStyle=orthogonalEdgeStyle;rounded=0;orthogonalLoop=1;jettySize=auto;html=1;exitX=0.5;exitY=0;exitDx=0;exitDy=0;entryX=0.5;entryY=1;entryDx=0;entryDy=0;dashed=1;endArrow=open;endFill=0;startArrow=none;fontSize=16;" parent="ioofGif-w8L6dYO9t3PO-1" source="cAXaz607S21CMz2bN2fo-0" target="0MO9sEzC8jJ6i8e_DC24-20" edge="1">
                    <mxGeometry relative="1" as="geometry"/>
                </mxCell>
                <mxCell id="0MO9sEzC8jJ6i8e_DC24-2" value="" style="rounded=0;whiteSpace=wrap;html=1;strokeWidth=2;fontSize=16;fillColor=#ffe6cc;strokeColor=#d79b00;" parent="ioofGif-w8L6dYO9t3PO-1" vertex="1">
                    <mxGeometry x="520" y="440" width="40" height="48" as="geometry"/>
                </mxCell>
                <mxCell id="0MO9sEzC8jJ6i8e_DC24-3" value="" style="rounded=0;whiteSpace=wrap;html=1;strokeWidth=2;fontSize=16;fillColor=#ffe6cc;strokeColor=#d79b00;" parent="ioofGif-w8L6dYO9t3PO-1" vertex="1">
                    <mxGeometry x="560" y="440" width="40" height="48" as="geometry"/>
                </mxCell>
                <mxCell id="0MO9sEzC8jJ6i8e_DC24-4" value="" style="rounded=0;whiteSpace=wrap;html=1;strokeWidth=2;fontSize=16;fillColor=#ffe6cc;strokeColor=#d79b00;" parent="ioofGif-w8L6dYO9t3PO-1" vertex="1">
                    <mxGeometry x="600" y="440" width="40" height="48" as="geometry"/>
                </mxCell>
                <mxCell id="0MO9sEzC8jJ6i8e_DC24-5" value="" style="rounded=0;whiteSpace=wrap;html=1;strokeWidth=2;fontSize=16;fillColor=#ffe6cc;strokeColor=#d79b00;" parent="ioofGif-w8L6dYO9t3PO-1" vertex="1">
                    <mxGeometry x="640" y="440" width="40" height="48" as="geometry"/>
                </mxCell>
                <mxCell id="0MO9sEzC8jJ6i8e_DC24-8" value="" style="rounded=0;whiteSpace=wrap;html=1;strokeWidth=2;fontSize=16;fillColor=#ffe6cc;strokeColor=#d79b00;" parent="ioofGif-w8L6dYO9t3PO-1" vertex="1">
                    <mxGeometry x="785" y="150" width="40" height="48" as="geometry"/>
                </mxCell>
                <mxCell id="0MO9sEzC8jJ6i8e_DC24-9" value="" style="rounded=0;whiteSpace=wrap;html=1;strokeWidth=2;fontSize=16;fillColor=#ffe6cc;strokeColor=#d79b00;" parent="ioofGif-w8L6dYO9t3PO-1" vertex="1">
                    <mxGeometry x="825" y="150" width="40" height="48" as="geometry"/>
                </mxCell>
                <mxCell id="0MO9sEzC8jJ6i8e_DC24-10" value="" style="rounded=0;whiteSpace=wrap;html=1;strokeWidth=2;fontSize=16;fillColor=#ffe6cc;strokeColor=#d79b00;" parent="ioofGif-w8L6dYO9t3PO-1" vertex="1">
                    <mxGeometry x="865" y="150" width="40" height="48" as="geometry"/>
                </mxCell>
                <mxCell id="0MO9sEzC8jJ6i8e_DC24-11" value="" style="rounded=0;whiteSpace=wrap;html=1;strokeWidth=2;fontSize=16;fillColor=#ffe6cc;strokeColor=#d79b00;" parent="ioofGif-w8L6dYO9t3PO-1" vertex="1">
                    <mxGeometry x="905" y="150" width="40" height="48" as="geometry"/>
                </mxCell>
                <mxCell id="0MO9sEzC8jJ6i8e_DC24-12" value="" style="rounded=0;whiteSpace=wrap;html=1;strokeWidth=2;fontSize=16;fillColor=#ffe6cc;strokeColor=#d79b00;" parent="ioofGif-w8L6dYO9t3PO-1" vertex="1">
                    <mxGeometry x="945" y="150" width="40" height="48" as="geometry"/>
                </mxCell>
                <mxCell id="0MO9sEzC8jJ6i8e_DC24-13" value="" style="rounded=0;whiteSpace=wrap;html=1;strokeWidth=2;fontSize=16;fillColor=#ffe6cc;strokeColor=#d79b00;" parent="ioofGif-w8L6dYO9t3PO-1" vertex="1">
                    <mxGeometry x="985" y="150" width="40" height="48" as="geometry"/>
                </mxCell>
                <mxCell id="0MO9sEzC8jJ6i8e_DC24-14" value="" style="rounded=0;whiteSpace=wrap;html=1;strokeWidth=2;fontSize=16;fillColor=#ffe6cc;strokeColor=#d79b00;" parent="ioofGif-w8L6dYO9t3PO-1" vertex="1">
                    <mxGeometry x="1025" y="150" width="40" height="48" as="geometry"/>
                </mxCell>
                <mxCell id="0MO9sEzC8jJ6i8e_DC24-15" value="" style="rounded=0;whiteSpace=wrap;html=1;strokeWidth=2;fontSize=16;fillColor=#ffe6cc;strokeColor=#d79b00;" parent="ioofGif-w8L6dYO9t3PO-1" vertex="1">
                    <mxGeometry x="1065" y="150" width="40" height="48" as="geometry"/>
                </mxCell>
                <mxCell id="cAXaz607S21CMz2bN2fo-17" style="edgeStyle=orthogonalEdgeStyle;html=1;exitX=0;exitY=0.5;exitDx=0;exitDy=0;entryX=0;entryY=0.5;entryDx=0;entryDy=0;dashed=1;fontSize=16;endArrow=open;endFill=0;strokeWidth=2;" edge="1" parent="ioofGif-w8L6dYO9t3PO-1" source="0MO9sEzC8jJ6i8e_DC24-16" target="cAXaz607S21CMz2bN2fo-15">
                    <mxGeometry relative="1" as="geometry"/>
                </mxCell>
                <mxCell id="0MO9sEzC8jJ6i8e_DC24-16" value="" style="rounded=0;whiteSpace=wrap;html=1;strokeWidth=2;fontSize=16;fillColor=#ffe6cc;strokeColor=#d79b00;" parent="ioofGif-w8L6dYO9t3PO-1" vertex="1">
                    <mxGeometry x="195" y="324" width="40" height="48" as="geometry"/>
                </mxCell>
                <mxCell id="0MO9sEzC8jJ6i8e_DC24-17" value="" style="rounded=0;whiteSpace=wrap;html=1;strokeWidth=2;fontSize=16;fillColor=#ffe6cc;strokeColor=#d79b00;" parent="ioofGif-w8L6dYO9t3PO-1" vertex="1">
                    <mxGeometry x="235" y="324" width="40" height="48" as="geometry"/>
                </mxCell>
                <mxCell id="0MO9sEzC8jJ6i8e_DC24-18" value="" style="rounded=0;whiteSpace=wrap;html=1;strokeWidth=2;fontSize=16;fillColor=#ffe6cc;strokeColor=#d79b00;" parent="ioofGif-w8L6dYO9t3PO-1" vertex="1">
                    <mxGeometry x="275" y="324" width="40" height="48" as="geometry"/>
                </mxCell>
                <mxCell id="0MO9sEzC8jJ6i8e_DC24-19" value="" style="rounded=0;whiteSpace=wrap;html=1;strokeWidth=2;fontSize=16;fillColor=#ffe6cc;strokeColor=#d79b00;" parent="ioofGif-w8L6dYO9t3PO-1" vertex="1">
                    <mxGeometry x="315" y="324" width="40" height="48" as="geometry"/>
                </mxCell>
                <mxCell id="CYp2y_-ue1TsQymlMDz_-3" value="old.cap &amp;gt; 1024" style="edgeStyle=orthogonalEdgeStyle;rounded=0;orthogonalLoop=1;jettySize=auto;html=1;exitX=0;exitY=0.5;exitDx=0;exitDy=0;dashed=1;endArrow=open;endFill=0;strokeWidth=2;fontSize=16;entryX=1;entryY=0.5;entryDx=0;entryDy=0;" parent="ioofGif-w8L6dYO9t3PO-1" source="0MO9sEzC8jJ6i8e_DC24-20" target="cAXaz607S21CMz2bN2fo-15" edge="1">
                    <mxGeometry relative="1" as="geometry">
                        <Array as="points"/>
                        <mxPoint x="395" y="174" as="targetPoint"/>
                    </mxGeometry>
                </mxCell>
                <mxCell id="0MO9sEzC8jJ6i8e_DC24-20" value="" style="rounded=0;whiteSpace=wrap;html=1;strokeWidth=2;fontSize=16;fillColor=#f5f5f5;strokeColor=#666666;fontColor=#333333;" parent="ioofGif-w8L6dYO9t3PO-1" vertex="1">
                    <mxGeometry x="580" y="150" width="40" height="48" as="geometry"/>
                </mxCell>
                <mxCell id="CYp2y_-ue1TsQymlMDz_-1" value="" style="rounded=0;whiteSpace=wrap;html=1;strokeWidth=2;fontSize=16;fillColor=#ffe6cc;strokeColor=#d79b00;" parent="ioofGif-w8L6dYO9t3PO-1" vertex="1">
                    <mxGeometry x="355" y="324" width="40" height="48" as="geometry"/>
                </mxCell>
                <mxCell id="CYp2y_-ue1TsQymlMDz_-5" value="doublecap" style="text;html=1;align=center;verticalAlign=middle;resizable=0;points=[];autosize=1;strokeColor=none;fontSize=16;" parent="ioofGif-w8L6dYO9t3PO-1" vertex="1">
                    <mxGeometry x="900" y="198" width="90" height="20" as="geometry"/>
                </mxCell>
                <mxCell id="CYp2y_-ue1TsQymlMDz_-6" value="newcap += newcap / 4" style="text;whiteSpace=wrap;html=1;fontSize=16;" parent="ioofGif-w8L6dYO9t3PO-1" vertex="1">
                    <mxGeometry x="212.5" y="372" width="165" height="30" as="geometry"/>
                </mxCell>
                <mxCell id="cAXaz607S21CMz2bN2fo-2" value="cap &amp;gt; doublecap" style="edgeStyle=none;html=1;exitX=1;exitY=0.5;exitDx=0;exitDy=0;strokeWidth=2;entryX=0;entryY=0.5;entryDx=0;entryDy=0;endArrow=open;endFill=0;dashed=1;fontSize=16;" edge="1" parent="ioofGif-w8L6dYO9t3PO-1" source="cAXaz607S21CMz2bN2fo-0" target="cAXaz607S21CMz2bN2fo-3">
                    <mxGeometry relative="1" as="geometry">
                        <mxPoint x="780" y="313.9230769230769" as="targetPoint"/>
                    </mxGeometry>
                </mxCell>
                <mxCell id="cAXaz607S21CMz2bN2fo-0" value="" style="rounded=0;whiteSpace=wrap;html=1;strokeWidth=2;fontSize=16;fillColor=#f5f5f5;strokeColor=#666666;fontColor=#333333;" vertex="1" parent="ioofGif-w8L6dYO9t3PO-1">
                    <mxGeometry x="580" y="290" width="40" height="48" as="geometry"/>
                </mxCell>
                <mxCell id="cAXaz607S21CMz2bN2fo-1" value="growSlice" style="edgeStyle=orthogonalEdgeStyle;rounded=0;orthogonalLoop=1;jettySize=auto;html=1;exitX=0;exitY=0;exitDx=0;exitDy=0;entryX=0.5;entryY=1;entryDx=0;entryDy=0;dashed=1;endArrow=open;endFill=0;fontSize=16;" edge="1" parent="ioofGif-w8L6dYO9t3PO-1" source="0MO9sEzC8jJ6i8e_DC24-4" target="cAXaz607S21CMz2bN2fo-0">
                    <mxGeometry relative="1" as="geometry">
                        <mxPoint x="600" y="410" as="sourcePoint"/>
                        <mxPoint x="595" y="198" as="targetPoint"/>
                    </mxGeometry>
                </mxCell>
                <mxCell id="cAXaz607S21CMz2bN2fo-3" value="" style="rounded=0;whiteSpace=wrap;html=1;strokeWidth=2;fontSize=16;fillColor=#ffe6cc;strokeColor=#d79b00;" vertex="1" parent="ioofGif-w8L6dYO9t3PO-1">
                    <mxGeometry x="785" y="290" width="40" height="48" as="geometry"/>
                </mxCell>
                <mxCell id="cAXaz607S21CMz2bN2fo-4" value="" style="rounded=0;whiteSpace=wrap;html=1;strokeWidth=2;fontSize=16;fillColor=#ffe6cc;strokeColor=#d79b00;" vertex="1" parent="ioofGif-w8L6dYO9t3PO-1">
                    <mxGeometry x="825" y="290" width="40" height="48" as="geometry"/>
                </mxCell>
                <mxCell id="cAXaz607S21CMz2bN2fo-5" value="" style="rounded=0;whiteSpace=wrap;html=1;strokeWidth=2;fontSize=16;fillColor=#ffe6cc;strokeColor=#d79b00;" vertex="1" parent="ioofGif-w8L6dYO9t3PO-1">
                    <mxGeometry x="865" y="290" width="40" height="48" as="geometry"/>
                </mxCell>
                <mxCell id="cAXaz607S21CMz2bN2fo-6" value="" style="rounded=0;whiteSpace=wrap;html=1;strokeWidth=2;fontSize=16;fillColor=#ffe6cc;strokeColor=#d79b00;" vertex="1" parent="ioofGif-w8L6dYO9t3PO-1">
                    <mxGeometry x="905" y="290" width="40" height="48" as="geometry"/>
                </mxCell>
                <mxCell id="cAXaz607S21CMz2bN2fo-7" value="" style="rounded=0;whiteSpace=wrap;html=1;strokeWidth=2;fontSize=16;fillColor=#ffe6cc;strokeColor=#d79b00;" vertex="1" parent="ioofGif-w8L6dYO9t3PO-1">
                    <mxGeometry x="945" y="290" width="40" height="48" as="geometry"/>
                </mxCell>
                <mxCell id="cAXaz607S21CMz2bN2fo-8" value="" style="rounded=0;whiteSpace=wrap;html=1;strokeWidth=2;fontSize=16;fillColor=#ffe6cc;strokeColor=#d79b00;" vertex="1" parent="ioofGif-w8L6dYO9t3PO-1">
                    <mxGeometry x="985" y="290" width="40" height="48" as="geometry"/>
                </mxCell>
                <mxCell id="cAXaz607S21CMz2bN2fo-14" value="cap" style="text;html=1;align=center;verticalAlign=middle;resizable=0;points=[];autosize=1;strokeColor=none;fillColor=none;fontSize=16;" vertex="1" parent="ioofGif-w8L6dYO9t3PO-1">
                    <mxGeometry x="880" y="338" width="40" height="20" as="geometry"/>
                </mxCell>
                <mxCell id="cAXaz607S21CMz2bN2fo-16" value="newcap &amp;lt; cap" style="edgeStyle=none;html=1;exitX=0.5;exitY=1;exitDx=0;exitDy=0;entryX=0.5;entryY=0;entryDx=0;entryDy=0;dashed=1;fontSize=16;endArrow=open;endFill=0;strokeWidth=2;" edge="1" parent="ioofGif-w8L6dYO9t3PO-1" source="cAXaz607S21CMz2bN2fo-15" target="0MO9sEzC8jJ6i8e_DC24-18">
                    <mxGeometry relative="1" as="geometry"/>
                </mxCell>
                <mxCell id="cAXaz607S21CMz2bN2fo-15" value="" style="rounded=0;whiteSpace=wrap;html=1;strokeWidth=2;fontSize=16;fillColor=#f5f5f5;strokeColor=#666666;fontColor=#333333;" vertex="1" parent="ioofGif-w8L6dYO9t3PO-1">
                    <mxGeometry x="275" y="150" width="40" height="48" as="geometry"/>
                </mxCell>
            </root>
        </mxGraphModel>
    </diagram>
</mxfile>